<?xml version="1.0" encoding="utf-8"?>
<!-- Generator: Adobe Illustrator 15.0.2, SVG Export Plug-In . SVG Version: 6.00 Build 0)  -->
<!DOCTYPE svg PUBLIC "-//W3C//DTD SVG 1.1//EN" "http://www.w3.org/Graphics/SVG/1.1/DTD/svg11.dtd">
<svg version="1.1" id="Layer_1" xmlns="http://www.w3.org/2000/svg" xmlns:xlink="http://www.w3.org/1999/xlink" x="0px" y="0px"
	 width="62.108px" height="62.109px" viewBox="0 0 62.108 62.109" enable-background="new 0 0 62.108 62.109" xml:space="preserve">
<radialGradient id="SVGID_1_" cx="22.3105" cy="19.3262" r="41.9855" gradientUnits="userSpaceOnUse">
	<stop  offset="0" style="stop-color:#38ABC7"/>
	<stop  offset="1" style="stop-color:#07778B"/>
</radialGradient>
<path fill="url(#SVGID_1_)" d="M62.108,53.533c0,4.736-3.841,8.576-8.575,8.576H8.575C3.84,62.109,0,58.27,0,53.533V8.575
	C0,3.84,3.84,0,8.575,0h44.958c4.734,0,8.575,3.84,8.575,8.575V53.533z"/>
<g>
	<path stroke="#000000" stroke-width="0.25" d="M11.88,15.678c1.659,0,2.585,0.366,3.188,0.646c0.776-0.237,1.702-0.431,2.241-0.452
		L17.438,16c-0.043,0.561-0.711,3.448-0.926,4.05l-0.711,0.28c-0.323-0.775-0.733-1.982-0.97-2.865
		c-0.431-0.259-1.099-0.431-2.068-0.431c-3.534,0-5.58,2.866-5.58,6.119c0,3.275,2.003,6.055,5.817,6.055
		c0.302,0,0.474-0.021,0.733-0.086c1.292-1.25,2.456-2.241,3.274-2.866l0.539,0.646c-0.345,0.97-1.508,2.736-1.896,3.146
		c-0.561,0.216-2.478,0.604-3.577,0.604c-4.201,0-8.36-2.24-8.36-7.39c0-5.344,4.697-7.584,8.145-7.584H11.88z"/>
	<path stroke="#000000" stroke-width="0.25" d="M17.396,18.425c0.862,0,1.742,0,2.604,0h4.401c0.16-0.036,1.67-0.233,2.047-0.252
		l0.072,0.09c-0.02,0.485-0.27,2.317-0.432,2.928l-0.432,0.162c-0.232-0.359-0.916-1.473-1.131-1.922l-3.125,0.18v4.005
		c1.545,0,3.377-0.144,4.652-0.27l0.143,0.27c-0.055,0.251-0.898,1.365-1.238,1.365c-0.252,0-2.82-0.234-3.557-0.234
		c0,0.988,0,3.09,0.072,4.311l3.105,0.18c0.629-0.826,1.438-1.886,2.066-2.479l0.502,0.27c-0.035,0.359-0.557,2.838-0.736,3.251
		c-1.148-0.054-2.119-0.054-3.178-0.054h-3.341c-0.934,0-1.939,0.018-2.892,0.018l0.198-0.683l1.419-0.593
		c0.054-0.251,0.107-1.867,0.107-4.902v-4.4l-1.562-0.539L17.396,18.425z"/>
	<path stroke="#000000" stroke-width="0.25" d="M27.522,18.425c0.881,0,1.725,0.018,2.588,0.018c0.914,0,1.812-0.018,2.729-0.018
		l-0.232,0.719l-1.15,0.557v4.364c0,2.855,0.037,4.31,0.072,4.992l3.125,0.18c0.395-0.61,1.527-2.191,1.939-2.622l0.432,0.233
		c-0.037,0.593-0.504,3.035-0.646,3.467c-0.719,0-1.689-0.072-6.34-0.072c-0.971,0-1.939,0-2.963,0l0.197-0.719l1.436-0.557
		c0.037-0.18,0.072-2.083,0.072-4.885V19.7l-1.473-0.575L27.522,18.425z"/>
	<path stroke="#000000" stroke-width="0.25" d="M37.058,18.425c0.879,0,1.725,0.018,2.586,0.018c0.916,0,1.814-0.018,2.73-0.018
		l-0.234,0.719L40.991,19.7v4.364c0,2.855,0.035,4.31,0.07,4.992l3.125,0.18c0.396-0.61,1.527-2.191,1.941-2.622l0.43,0.233
		c-0.035,0.593-0.502,3.035-0.646,3.467c-0.719,0-1.688-0.072-6.34-0.072c-0.969,0-1.939,0-2.963,0l0.197-0.719l1.438-0.557
		c0.035-0.18,0.072-2.083,0.072-4.885V19.7l-1.473-0.575L37.058,18.425z"/>
	<path stroke="#000000" stroke-width="0.25" d="M53.649,17.994l0.072,0.107c0,0.574,0.09,0.736,0.287,1.293
		c0.27,0.754,1.186,3.035,3.447,8.729c0.307,0.772,0.521,0.897,1.869,1.437l-0.234,0.683c-0.934,0-1.867-0.018-2.818-0.018
		c-0.684,0-1.402,0.018-2.102,0.018l0.215-0.683l0.557-0.484c-0.072-0.306-0.557-1.438-1.006-2.641
		c-0.664,0.036-1.473,0.108-3.896,0.072c-0.467,1.221-0.664,1.777-0.863,2.406l1.383,0.61l-0.197,0.719
		c-0.646,0-1.293-0.018-1.939-0.018c-0.682,0-1.365,0.018-2.047,0.018l0.197-0.719l1.186-0.646c0.432-0.79,2.316-5.244,3.861-9.052
		c0.035-0.125,0.035-0.251,0-0.431l-0.18-0.521L53.649,17.994z M52.069,20.975c-0.953,2.515-1.186,3.144-1.58,4.239
		c0.484,0,2.496,0.071,3.088,0.071c-0.664-1.939-1.148-3.305-1.473-4.311H52.069z"/>
</g>
<g>
	<path stroke="#000000" stroke-width="0.25" d="M4.838,31.239c0.388-0.043,2.715-0.28,5.429-0.28c6.787,0,9.33,2.779,9.33,6.938
		c0,4.137-2.693,5.989-4.805,6.743c-1.702,0.625-3.555,0.732-6.679,0.732c-1.336,0-2.887-0.043-3.641-0.064l0.258-0.84l1.551-0.604
		c0.086-0.388,0.129-2.327,0.129-5.946v-5.43l-1.745-0.475L4.838,31.239z M9.621,37.919c0,3.576,0,6.075,0.086,6.377
		c1.4,0,3.34-0.28,4.697-1.616c1.099-1.12,1.681-2.585,1.681-4.61c0-1.638-0.452-3.383-1.917-4.589
		c-1.336-1.121-2.822-1.314-4.546-1.314V37.919z"/>
	<path stroke="#000000" stroke-width="0.25" d="M26.312,33.168c2.711,0,6.393,1.724,6.465,6.088c0.053,4.4-3.449,6.394-6.52,6.394
		c-2.945,0-6.555-1.921-6.555-6.124c0-3.897,3.25-6.357,6.59-6.357H26.312z M26.022,34.102c-2.154,0-3.285,2.281-3.285,5.083
		c0,2.873,1.346,5.549,3.752,5.549c2.551,0,3.252-2.891,3.252-5.244c0-2.227-1.168-5.388-3.699-5.388H26.022z"/>
	<path stroke="#000000" stroke-width="0.25" d="M40.245,33.168c2.711,0,6.393,1.724,6.465,6.088c0.053,4.4-3.449,6.394-6.52,6.394
		c-2.945,0-6.555-1.921-6.555-6.124c0-3.897,3.25-6.357,6.59-6.357H40.245z M39.956,34.102c-2.154,0-3.285,2.281-3.285,5.083
		c0,2.873,1.346,5.549,3.752,5.549c2.551,0,3.252-2.891,3.252-5.244c0-2.227-1.168-5.388-3.699-5.388H39.956z"/>
	<path stroke="#000000" stroke-width="0.25" d="M47.03,33.707c0.717-0.108,3.105-0.359,5.172-0.359c3.43,0,4.812,1.131,4.812,3.017
		c0,1.671-1.473,2.587-2.641,2.964l-0.018,0.036c0.395,0.771,1.707,2.783,2.426,3.825c1.166,1.67,1.363,1.868,1.525,2.119
		l-0.27,0.287c-2.191,0-2.98-0.557-3.699-1.4c-0.736-0.845-1.904-2.676-2.945-4.508l0.035-0.126
		c1.689-0.323,2.748-1.042,2.748-2.766c0-1.976-1.436-2.461-3.178-2.389v5.172c0,2.461-0.02,3.646,0.035,4.437l1.725,0.574
		l-0.162,0.719c-0.951,0-1.904-0.018-2.891-0.018c-1.006,0-2.012,0.018-3.035,0.018l0.215-0.719l1.311-0.557
		c0.037-0.628,0.127-2.083,0.127-4.436V34.73l-1.562-0.287L47.03,33.707z"/>
</g>
<g>
	<path fill="#FFFFFF" d="M10.863,15.013c1.659,0,2.585,0.366,3.188,0.646c0.776-0.237,1.702-0.431,2.241-0.452l0.129,0.129
		c-0.043,0.561-0.711,3.448-0.926,4.05l-0.711,0.28c-0.323-0.775-0.732-1.981-0.969-2.865c-0.431-0.259-1.099-0.431-2.068-0.431
		c-3.534,0-5.581,2.866-5.581,6.119c0,3.275,2.004,6.055,5.817,6.055c0.302,0,0.474-0.021,0.732-0.086
		c1.293-1.25,2.457-2.241,3.275-2.866l0.539,0.646c-0.345,0.97-1.508,2.736-1.896,3.146c-0.561,0.216-2.478,0.604-3.577,0.604
		c-4.202,0-8.36-2.24-8.36-7.39c0-5.344,4.697-7.584,8.145-7.584H10.863z"/>
	<path fill="#FFFFFF" d="M16.379,17.76c0.862,0,1.742,0,2.604,0h4.4c0.162-0.036,1.67-0.233,2.047-0.251l0.072,0.09
		c-0.018,0.485-0.27,2.317-0.432,2.927l-0.432,0.162c-0.232-0.359-0.914-1.473-1.131-1.922l-3.125,0.18v4.005
		c1.545,0,3.377-0.144,4.652-0.27l0.143,0.27c-0.053,0.251-0.896,1.365-1.238,1.365c-0.252,0-2.82-0.234-3.557-0.234
		c0,0.988,0,3.09,0.072,4.311l3.107,0.18c0.629-0.826,1.436-1.886,2.064-2.479l0.504,0.27c-0.037,0.359-0.557,2.838-0.736,3.251
		c-1.15-0.054-2.119-0.054-3.18-0.054h-3.34c-0.934,0-1.939,0.018-2.892,0.018l0.198-0.683l1.419-0.593
		c0.054-0.251,0.107-1.867,0.107-4.902v-4.4l-1.562-0.539L16.379,17.76z"/>
	<path fill="#FFFFFF" d="M26.505,17.76c0.881,0,1.725,0.018,2.588,0.018c0.914,0,1.812-0.018,2.729-0.018l-0.232,0.719l-1.15,0.557
		v4.364c0,2.855,0.037,4.31,0.072,4.992l3.125,0.18c0.395-0.61,1.527-2.191,1.939-2.622l0.432,0.233
		c-0.037,0.593-0.504,3.035-0.646,3.467c-0.719,0-1.689-0.072-6.34-0.072c-0.971,0-1.939,0-2.963,0l0.197-0.719l1.436-0.557
		c0.037-0.18,0.072-2.083,0.072-4.885v-4.382L26.29,18.46L26.505,17.76z"/>
	<path fill="#FFFFFF" d="M36.04,17.76c0.879,0,1.725,0.018,2.586,0.018c0.916,0,1.814-0.018,2.73-0.018l-0.234,0.719l-1.148,0.557
		v4.364c0,2.855,0.035,4.31,0.07,4.992l3.125,0.18c0.396-0.61,1.527-2.191,1.941-2.622l0.43,0.233
		c-0.035,0.593-0.502,3.035-0.646,3.467c-0.719,0-1.688-0.072-6.34-0.072c-0.969,0-1.939,0-2.963,0l0.197-0.719l1.438-0.557
		c0.035-0.18,0.072-2.083,0.072-4.885v-4.382l-1.473-0.575L36.04,17.76z"/>
	<path fill="#FFFFFF" d="M52.632,17.329l0.072,0.108c0,0.574,0.09,0.736,0.287,1.293c0.27,0.754,1.186,3.035,3.447,8.729
		c0.307,0.772,0.521,0.897,1.869,1.437l-0.234,0.683c-0.934,0-1.867-0.018-2.818-0.018c-0.684,0-1.402,0.018-2.102,0.018
		l0.215-0.683l0.557-0.484c-0.072-0.306-0.557-1.438-1.006-2.641c-0.664,0.036-1.473,0.108-3.896,0.072
		c-0.467,1.221-0.664,1.777-0.863,2.406l1.383,0.61l-0.197,0.719c-0.646,0-1.293-0.018-1.939-0.018
		c-0.682,0-1.365,0.018-2.047,0.018l0.197-0.719l1.186-0.646c0.432-0.79,2.316-5.244,3.861-9.052c0.035-0.125,0.035-0.251,0-0.431
		l-0.18-0.521L52.632,17.329z M51.052,20.31c-0.953,2.515-1.186,3.144-1.58,4.239c0.484,0,2.496,0.071,3.088,0.071
		c-0.664-1.939-1.148-3.305-1.473-4.311H51.052z"/>
</g>
<g>
	<path fill="#FFFFFF" d="M3.821,30.573c0.388-0.043,2.715-0.279,5.43-0.279c6.787,0,9.329,2.779,9.329,6.938
		c0,4.137-2.693,5.99-4.805,6.744c-1.702,0.625-3.555,0.732-6.679,0.732c-1.336,0-2.887-0.043-3.641-0.064l0.258-0.84L5.264,43.2
		c0.086-0.389,0.129-2.328,0.129-5.947v-5.43l-1.745-0.475L3.821,30.573z M8.604,37.253c0,3.576,0,6.076,0.086,6.377
		c1.4,0,3.34-0.279,4.697-1.615c1.099-1.121,1.68-2.586,1.68-4.611c0-1.637-0.452-3.383-1.917-4.588
		c-1.336-1.121-2.822-1.314-4.546-1.314V37.253z"/>
	<path fill="#FFFFFF" d="M25.294,32.503c2.711,0,6.393,1.723,6.465,6.088c0.055,4.4-3.447,6.393-6.52,6.393
		c-2.945,0-6.555-1.92-6.555-6.123c0-3.898,3.25-6.357,6.592-6.357H25.294z M25.007,33.437c-2.156,0-3.287,2.281-3.287,5.082
		c0,2.873,1.348,5.549,3.754,5.549c2.549,0,3.25-2.891,3.25-5.244c0-2.227-1.168-5.387-3.699-5.387H25.007z"/>
	<path fill="#FFFFFF" d="M39.228,32.503c2.711,0,6.393,1.723,6.465,6.088c0.053,4.4-3.449,6.393-6.52,6.393
		c-2.945,0-6.555-1.92-6.555-6.123c0-3.898,3.25-6.357,6.59-6.357H39.228z M38.938,33.437c-2.154,0-3.285,2.281-3.285,5.082
		c0,2.873,1.346,5.549,3.752,5.549c2.551,0,3.252-2.891,3.252-5.244c0-2.227-1.168-5.387-3.699-5.387H38.938z"/>
	<path fill="#FFFFFF" d="M46.013,33.042c0.719-0.109,3.107-0.359,5.172-0.359c3.432,0,4.814,1.131,4.814,3.016
		c0,1.672-1.473,2.588-2.641,2.965l-0.018,0.035c0.395,0.771,1.705,2.783,2.424,3.826c1.168,1.67,1.365,1.867,1.527,2.119
		l-0.27,0.287c-2.191,0-2.982-0.557-3.699-1.4c-0.738-0.846-1.904-2.676-2.947-4.508l0.037-0.127
		c1.688-0.322,2.748-1.041,2.748-2.766c0-1.975-1.438-2.461-3.18-2.389v5.172c0,2.461-0.018,3.646,0.037,4.438l1.723,0.574
		l-0.16,0.719c-0.953,0-1.904-0.018-2.893-0.018c-1.006,0-2.012,0.018-3.035,0.018l0.215-0.719l1.312-0.557
		c0.035-0.629,0.125-2.084,0.125-4.436v-4.867l-1.562-0.287L46.013,33.042z"/>
</g>
</svg>
